<svg width="32" height="32" viewBox="0 0 32 32" fill="none" xmlns="http://www.w3.org/2000/svg">
<circle cx="16" cy="16" r="16" fill="#D9D9D9"/>
<path d="M21.528 10.904C21.736 10.904 21.84 11 21.84 11.192C21.84 11.384 21.752 11.496 21.576 11.528L21.12 11.6C20.672 11.68 20.336 11.984 20.112 12.512L15.816 23.048C15.752 23.192 15.616 23.264 15.408 23.264C15.216 23.264 15.088 23.192 15.024 23.048L10.728 12.44C10.536 11.96 10.208 11.68 9.744 11.6L9.288 11.528C9.112 11.496 9.024 11.384 9.024 11.192C9.024 11 9.136 10.904 9.36 10.904L11.736 11L14.04 10.904C14.312 10.904 14.448 11 14.448 11.192C14.448 11.384 14.344 11.496 14.136 11.528L13.632 11.576C13.056 11.624 12.768 11.832 12.768 12.2C12.768 12.328 12.784 12.424 12.816 12.488L15.744 20.216C15.776 20.296 15.816 20.336 15.864 20.336C15.928 20.336 15.976 20.304 16.008 20.24L19.056 12.488C19.12 12.344 19.152 12.208 19.152 12.08C19.152 11.792 18.904 11.624 18.408 11.576L17.928 11.528C17.736 11.496 17.64 11.384 17.64 11.192C17.64 11 17.752 10.904 17.976 10.904L19.8 11L21.528 10.904Z" fill="black"/>
</svg>
