<svg width="32" height="24" viewBox="0 0 32 24" fill="none" xmlns="http://www.w3.org/2000/svg">
<path d="M1.77778 24C1.27408 24 0.852154 23.808 0.512006 23.424C0.171858 23.04 0.00119131 22.5653 6.13026e-06 22C-0.00117905 21.4346 0.169488 20.96 0.512006 20.576C0.854525 20.192 1.27645 20 1.77778 20H30.2222C30.7259 20 31.1484 20.192 31.4898 20.576C31.8311 20.96 32.0012 21.4346 32 22C31.9988 22.5653 31.8281 23.0406 31.488 23.426C31.1478 23.8113 30.7259 24.0026 30.2222 24H1.77778ZM1.77778 14C1.27408 14 0.852154 13.808 0.512006 13.424C0.171858 13.04 0.00119131 12.5653 6.13026e-06 12C-0.00117905 11.4347 0.169488 10.96 0.512006 10.576C0.854525 10.192 1.27645 9.99999 1.77778 9.99999H30.2222C30.7259 9.99999 31.1484 10.192 31.4898 10.576C31.8311 10.96 32.0012 11.4347 32 12C31.9988 12.5653 31.8281 13.0407 31.488 13.426C31.1478 13.8113 30.7259 14.0026 30.2222 14H1.77778ZM1.77778 4C1.27408 4 0.852154 3.808 0.512006 3.424C0.171858 3.04 0.00119131 2.56533 6.13026e-06 2C-0.00117905 1.43467 0.169488 0.959999 0.512006 0.576C0.854525 0.192 1.27645 0 1.77778 0H30.2222C30.7259 0 31.1484 0.192 31.4898 0.576C31.8311 0.959999 32.0012 1.43467 32 2C31.9988 2.56533 31.8281 3.04066 31.488 3.426C31.1478 3.81133 30.7259 4.00266 30.2222 4H1.77778Z" fill="#0D1B2A"/>
</svg>
